<svg width="31" height="24" viewBox="0 0 31 24" fill="none" xmlns="http://www.w3.org/2000/svg">
<path d="M6.58333 1.41669V6.75002H1.25V1.41669H6.58333ZM6.58333 9.33335V14.6667H1.25V9.33335H6.58333ZM14.5 9.33335V14.6667H9.16667V9.33335H14.5ZM22.4167 9.33335V14.6667H17.0833V9.33335H22.4167ZM14.5 1.41669V6.75002H9.16667V1.41669H14.5ZM22.4167 6.75002H17.0833V1.41669H22.4167V6.75002ZM30.3333 9.33335V14.6667H25V9.33335H30.3333ZM6.58333 17.25V22.5834H1.25V17.25H6.58333ZM14.5 17.25V22.5834H9.16667V17.25H14.5ZM22.4167 17.25V22.5834H17.0833V17.25H22.4167ZM30.3333 17.25V22.5834H25V17.25H30.3333ZM30.3333 6.75002H25V1.41669H30.3333V6.75002Z" stroke="black"/>
</svg>
